<svg width="442" height="442" viewBox="0 0 442 442" fill="none" xmlns="http://www.w3.org/2000/svg">
<path d="M151.208 11.549L133.234 56.0888C131.092 61.3956 125.405 62.0906 122.829 61.7748L73.6365 54.1935C56.2301 54.1935 54.4011 66.1972 55.6625 72.199L62.2845 117.686C63.7981 126.026 59.7618 130.006 57.5545 130.954L8.36172 152.75C-3.74747 158.815 0.163203 170.439 4.57819 175.493L34.8502 214.347C38.6342 218.896 35.7962 225.087 33.9042 227.614L6.46972 262.678C-6.3959 278.598 3.00105 288.896 8.36172 291.107L58.4998 311.008C61.527 312.524 61.0224 317.957 60.3918 320.484L54.7158 373.553C54.7158 385.683 65.4371 388.084 70.7978 387.768L116.206 381.134C128.315 378.86 131.972 384.609 132.288 387.768L154.992 436.098C161.046 445.196 170.128 441.784 173.912 438.941L215.536 407.669C220.077 403.878 224.365 406.089 225.942 407.669L266.62 438.941C284.595 447.47 289.955 433.571 292.162 428.517L311.082 383.977C312.596 380.187 318.65 380.503 321.488 381.134L373.518 386.82C384.113 386.82 386.131 377.976 385.816 373.553L381.086 321.432C379.572 313.851 384.87 310.692 387.708 310.06L434.062 289.212C443.144 284.663 443.523 274.997 439.738 268.363L407.574 225.719C404.547 221.17 406.313 218.138 407.574 217.19L435.954 176.441C446.549 163.553 438.477 155.277 433.116 152.75L385.816 133.797C380.518 131.522 379.825 122.741 380.14 118.634L385.816 71.2513C387.33 56.0888 374.464 54.1935 367.842 55.1412L321.488 62.7224C313.163 64.2387 311.082 60.1953 311.082 57.9842L289.324 8.70611C283.27 -2.66574 272.927 0.808946 268.512 3.96777L229.726 32.3975C222.915 38.4625 216.167 34.9246 213.644 32.3975L176.75 3.96777C163.127 -5.88784 154.046 4.91543 151.208 11.549Z" fill="#ED2429"/>
<path d="M121 219.022L144.65 197.226L195.734 248.399L298.848 147L321.552 169.744L195.734 295.782L121 219.022Z" fill="white"/>
</svg>
